<?xml version="1.0" standalone="no"?>
<!DOCTYPE svg PUBLIC "-//W3C//DTD SVG 20010904//EN"
 "http://www.w3.org/TR/2001/REC-SVG-20010904/DTD/svg10.dtd">
<svg version="1.0" xmlns="http://www.w3.org/2000/svg"
 width="128.000000pt" height="128.000000pt" viewBox="0 0 128.000000 128.000000"
 preserveAspectRatio="xMidYMid meet">
<metadata>
Created by potrace 1.14, written by Peter Selinger 2001-2017
</metadata>
<g transform="translate(0.000000,128.000000) scale(0.100000,-0.100000)"
fill="#000000" stroke="none">
<path d="M562 1225 c-181 -136 -303 -181 -501 -185 -18 0 -9 -149 19 -294 68
-350 240 -597 503 -722 l56 -26 55 25 c184 84 339 250 425 453 38 89 77 223
86 294 4 30 9 58 10 61 9 14 17 209 9 210 -5 0 -38 2 -74 3 -36 1 -83 6 -105
10 -65 13 -234 100 -320 165 -44 34 -82 61 -85 61 -3 0 -38 -25 -78 -55z m150
-119 c118 -82 237 -135 347 -156 30 -6 58 -15 61 -20 4 -6 1 -49 -6 -96 -46
-312 -170 -535 -371 -670 -94 -62 -102 -63 -188 -9 -187 116 -315 316 -371
580 -24 113 -33 190 -22 200 3 4 21 9 40 11 62 9 143 36 218 73 76 37 185 105
196 122 10 17 33 9 96 -35z"/>
<path d="M580 1066 c-85 -64 -250 -138 -341 -152 l-41 -7 6 -56 c8 -81 49
-235 84 -318 69 -163 174 -283 316 -362 l38 -22 56 33 c78 46 190 160 240 244
71 120 116 260 137 428 7 50 5 56 -11 57 -83 3 -224 62 -358 150 -32 22 -63
39 -70 39 -6 0 -31 -16 -56 -34z"/>
</g>
</svg>
