<?xml version="1.0" ?><svg id="Layer_1" style="enable-background:new 0 0 120 120;" version="1.1" viewBox="0 0 120 120" xml:space="preserve" xmlns="http://www.w3.org/2000/svg" xmlns:xlink="http://www.w3.org/1999/xlink"><style type="text/css">
	.st0{fill:#386BFF;}
</style><path class="st0" d="M94.2,31.8L70.9,35c-1.4,0.2-1.9,1.9-0.8,2.8l7.2,6c0.7,0.6,0.7,1.6,0.2,2.2L63.3,62.9  c-0.6,0.6-1.5,0.8-2.2,0.2l-8.8-6.8l-2.6-2C49,53.8,48,54,47.5,54.6l-1.9,2.3L23.1,85.6c-0.5,0.6-0.4,1.5,0.1,2.1l0,0  c0.6,0.6,1.5,0.6,2.2,0.1l23.1-20.1c0.6-0.5,1.4-0.5,2-0.1l9.6,7.4l2.6,2c0.7,0.5,1.6,0.4,2.2-0.2l2.1-2.6l18.2-21.9  c0.6-0.7,1.6-0.7,2.2-0.2l7.2,6c1.1,0.9,2.7,0.1,2.6-1.3l-1.1-23.5C96,32.4,95.1,31.7,94.2,31.8z"/></svg>